PathFileType	4	(X/Y/Z)	anato.trc
DataRate	CameraRate	NumFrames	NumMarkers	Units	OrigDataRate	OrigDataStartFrame	OrigNumFrames
100.0	100.0	4	17	mm	100.0	1	618
Frame#	Time	STER			XIPH			T10			T1			CLAV_SC			CLAV_AC			SCAP_AA			SCAP_CP			SCAP_TS			SCAP_IA			DELT			ARMl			EPICm			EPICl			LARM_elb			STYLr			STYLu		
		X1	Y1	Z1	X2	Y2	Z2	X3	Y3	Z3	X4	Y4	Z4	X5	Y5	Z5	X6	Y6	Z6	X7	Y7	Z7	X8	Y8	Z8	X9	Y9	Z9	X10	Y10	Z10	X11	Y11	Z11	X12	Y12	Z12	X13	Y13	Z13	X14	Y14	Z14	X15	Y15	Z15	X16	Y16	Z16	X17	Y17	Z17

1	0.0	378.1743469238281	39.013423919677734	1435.7181396484375	385.7016906738281	88.57103729248047	1276.9490966796875	376.2702331542969	-145.18621826171875	1235.654541015625	375.8384704589844	-123.56318664550781	1477.1976318359375	413.3290710449219	29.40414810180664	1443.783935546875	569.6340942382812	-42.69713592529297	1465.047119140625	576.3020629882812	-88.81053924560547	1451.0914306640625	519.7431030273438	-95.44664764404297	1480.330322265625	507.659423828125	-153.1717071533203	1426.8232421875	488.8825378417969	-165.13189697265625	1283.6236572265625	652.0546875	-69.78578186035156	1321.36474609375	671.1223754882812	-82.17396545410156	1275.9718017578125	671.5862426757812	-27.41733741760254	1115.9644775390625	737.3406982421875	-88.14832305908203	1174.127197265625	688.1741333007812	-72.80183410644531	1109.9429931640625	923.6756591796875	35.42787551879883	1000.06494140625	865.5407104492188	4.39015531539917	951.3699340820312
2	0.01	378.1566162109375	39.02519989013672	1435.693115234375	385.6206970214844	88.55413818359375	1276.9183349609375	376.2596435546875	-145.23304748535156	1235.6551513671875	375.78387451171875	-123.56214904785156	1477.173583984375	413.35968017578125	29.45197868347168	1443.7803955078125	569.5781860351562	-42.70559310913086	1465.0263671875	576.2827758789062	-88.82495880126953	1451.0927734375	519.7122802734375	-95.43783569335938	1480.333251953125	507.6810302734375	-153.1895294189453	1426.82470703125	488.864990234375	-165.1645050048828	1283.6483154296875	652.0362548828125	-69.7700424194336	1321.35498046875	671.0966186523438	-82.15536499023438	1275.9586181640625	nan	nan	nan	737.3259887695312	-88.12415313720703	1174.1273193359375	688.1223754882812	-72.79549407958984	1109.938232421875	923.3889770507812	35.47767639160156	999.8999633789062	865.470458984375	4.426170349121094	951.3486328125
3	0.02	378.1220703125	39.038429260253906	1435.6751708984375	385.6280517578125	88.55493927001953	1276.9110107421875	376.1983947753906	-145.23837280273438	1235.6517333984375	375.74420166015625	-123.54756927490234	1477.19287109375	413.2631530761719	29.415800094604492	1443.7479248046875	569.5814819335938	-42.70368957519531	1465.0111083984375	576.2493286132812	-88.81466674804688	1451.0870361328125	519.6774291992188	-95.4375991821289	1480.3331298828125	507.6080017089844	-153.1926727294922	1426.80615234375	488.862060546875	-165.16876220703125	1283.657470703125	652.1273803710938	-69.70967864990234	1321.1578369140625	671.063720703125	-82.12567138671875	1275.9588623046875	673.0435791015625	-28.990652084350586	1117.115234375	737.318603515625	-88.09445190429688	1174.1221923828125	688.069091796875	-72.74475860595703	1109.9139404296875	923.351318359375	35.51657485961914	999.8848266601562	865.4066162109375	4.461674690246582	951.3345336914062
4	0.03	378.1113586425781	39.02790832519531	1435.62353515625	385.5841064453125	88.53023529052734	1276.8880615234375	376.1690368652344	-145.25860595703125	1235.65087890625	375.70458984375	-123.5260009765625	1477.185546875	413.1991882324219	29.434654235839844	1443.7518310546875	569.5430908203125	-42.69075393676758	1465.009521484375	576.2213134765625	-88.81216430664062	1451.05224609375	519.630126953125	-95.43246459960938	1480.3382568359375	507.61346435546875	-153.2038116455078	1426.8094482421875	488.8022155761719	-165.1962890625	1283.638671875	653.2852172851562	-69.68272399902344	1321.6827392578125	671.0298461914062	-82.11143493652344	1275.9486083984375	673.03955078125	-28.9508113861084	1117.09228515625	737.231201171875	-88.08320617675781	1174.1090087890625	688.034423828125	-72.72297668457031	1109.899658203125	923.2564697265625	35.55157470703125	999.8513793945312	865.3435668945312	4.497159004211426	951.2949829101562
